<svg width="100" height="100" xmlns="http://www.w3.org/2000/svg">
  <defs>
    <pattern id="forest" patternUnits="userSpaceOnUse" width="100" height="100">
      <!-- 树1 -->
      <path d="M10,80 L15,60 L5,60 L10,40 L0,40 L10,10 L20,40 L10,40 L15,60 L25,60 L20,80 Z" fill="#2d4a22" opacity="0.5" />
      <!-- 树2 -->
      <path d="M50,80 L55,60 L45,60 L50,40 L40,40 L50,10 L60,40 L50,40 L55,60 L65,60 L60,80 Z" fill="#2d4a22" opacity="0.5" />
      <!-- 树3 -->
      <path d="M80,70 L85,50 L75,50 L80,30 L70,30 L80,5 L90,30 L80,30 L85,50 L95,50 L90,70 Z" fill="#2d4a22" opacity="0.5" />
      <!-- 草丛 -->
      <path d="M15,95 Q20,85 25,95 Q30,85 35,95 Z" fill="#2d4a22" opacity="0.3" />
      <path d="M65,90 Q70,80 75,90 Q80,80 85,90 Z" fill="#2d4a22" opacity="0.3" />
      <!-- 小点 -->
      <circle cx="30" cy="20" r="2" fill="#2d4a22" opacity="0.3" />
      <circle cx="70" cy="40" r="2" fill="#2d4a22" opacity="0.3" />
      <circle cx="40" cy="70" r="2" fill="#2d4a22" opacity="0.3" />
      <circle cx="90" cy="85" r="2" fill="#2d4a22" opacity="0.3" />
    </pattern>
  </defs>
  <rect width="100%" height="100%" fill="url(#forest)" />
</svg> 